<svg width="120" height="32" viewBox="0 0 120 32" fill="none" xmlns="http://www.w3.org/2000/svg">
  <defs>
    <linearGradient id="atlasGradient" x1="0" y1="0" x2="120" y2="32" gradientUnits="userSpaceOnUse">
      <stop stop-color="#4F46E5" />
      <stop offset="0.5" stop-color="#22C55E" />
      <stop offset="1" stop-color="#06B6D4" />
    </linearGradient>
  </defs>
  <rect x="0.5" y="0.5" width="31" height="31" rx="10" fill="url(#atlasGradient)" />
  <path
    d="M9 21C10.5 16 13.5 11 16 11C18.5 11 21.5 16 23 21"
    stroke="white"
    stroke-width="1.8"
    stroke-linecap="round"
  />
  <path
    d="M11 14H21"
    stroke="white"
    stroke-width="1.4"
    stroke-linecap="round"
    opacity="0.8"
  />
  <path
    d="M36 21V11H39.1L41.2 16.7L43.3 11H46.4V21H44.3V14.7L42.3 20H40L38 14.7V21H36Z"
    fill="white"
  />
  <path
    d="M51.8 21.15C50.7 21.15 49.8 20.78 49.15 20.04C48.5 19.29 48.18 18.22 48.18 16.82C48.18 15.43 48.5 14.35 49.16 13.59C49.82 12.82 50.72 12.44 51.86 12.44C52.15 12.44 52.46 12.47 52.78 12.52C53.1 12.57 53.36 12.64 53.57 12.72L53.21 14.41C53.05 14.35 52.86 14.3 52.64 14.26C52.42 14.22 52.23 14.2 52.06 14.2C51.25 14.2 50.84 14.92 50.84 16.38C50.84 17.19 50.95 17.79 51.18 18.18C51.41 18.57 51.76 18.76 52.23 18.76C52.48 18.76 52.73 18.73 52.98 18.67C53.23 18.61 53.45 18.53 53.63 18.43L53.99 20.12C53.76 20.26 53.47 20.37 53.11 20.46C52.75 20.55 52.33 20.6 51.86 20.6L51.8 21.15Z"
    fill="white"
  />
  <path
    d="M56.7 21V11H59.32V15.04L62.3 11H65.34L61.84 14.89L65.52 21H62.44L60.12 16.86L59.32 17.72V21H56.7Z"
    fill="white"
  />
  <path
    d="M68.46 21V13.58H66.3V11H74.1V13.58H71.94V21H68.46Z"
    fill="white"
  />
  <path
    d="M77.12 21V11H80.6V21H77.12Z"
    fill="white"
  />
  <path
    d="M84.2 21V11H87.32L91.38 17.26V11H94.72V21H91.64L87.54 14.74V21H84.2Z"
    fill="white"
  />
</svg>

