<svg width="120" height="24" viewBox="0 0 120 24" fill="none" xmlns="http://www.w3.org/2000/svg">
  <rect width="120" height="24" rx="6" fill="#020617" />
  <path d="M16 7L11 17H13.2L16 11.8L18.8 17H21L16 7Z" fill="#38BDF8" />
  <path d="M26 9H28V17H26V9Z" fill="#E5E7EB" />
  <path d="M32 9H34L37 13.2V9H39V17H37L34 12.8V17H32V9Z" fill="#E5E7EB" />
  <path d="M44 9H49C51 9 52 10 52 11.6C52 13.1 51.1 14 49.4 14L52 17H49.4L47.2 14.5H46V17H44V9ZM49 12.5C49.8 12.5 50.3 12.1 50.3 11.5C50.3 10.9 49.9 10.5 49.2 10.5H46V12.5H49Z" fill="#E5E7EB" />
  <path d="M56 9H64V10.5H60.5V17H59V10.5H56V9Z" fill="#E5E7EB" />
  <path d="M68.5 8.9C71.1 8.9 73 10.5 73 13C73 15.5 71.1 17.1 68.5 17.1C65.9 17.1 64 15.5 64 13C64 10.5 65.9 8.9 68.5 8.9ZM68.5 15.6C70 15.6 71.2 14.7 71.2 13C71.2 11.3 70 10.4 68.5 10.4C67 10.4 65.8 11.3 65.8 13C65.8 14.7 67 15.6 68.5 15.6Z" fill="#E5E7EB" />
  <path d="M77 9H79V14.4C79 15.3 79.5 15.7 80.3 15.7C81.1 15.7 81.6 15.3 81.6 14.4V9H83.6V14.4C83.6 16.3 82.5 17.3 80.3 17.3C78.1 17.3 77 16.3 77 14.4V9Z" fill="#E5E7EB" />
  <path d="M88 9H90L92.3 13.1L94.6 9H96.6V17H94.8V12.3L92.8 15.9H91.9L89.9 12.3V17H88V9Z" fill="#E5E7EB" />
</svg>

